<?xml version="1.0" encoding="utf-8"?>
<!-- Generator: Adobe Illustrator 23.0.4, SVG Export Plug-In . SVG Version: 6.00 Build 0)  -->
<svg version="1.1" id="Duurzaam_wonen_-_zonnepanelen"
	 xmlns="http://www.w3.org/2000/svg" xmlns:xlink="http://www.w3.org/1999/xlink" x="0px" y="0px" viewBox="0 0 1374.69 607.81"
	 style="enable-background:new 0 0 1374.69 607.81;" xml:space="preserve">
<style type="text/css">
	.st0{fill:#000099;stroke:#000099;stroke-width:4;stroke-linecap:round;stroke-linejoin:round;stroke-miterlimit:10;}
	.st1{fill:none;stroke:#000099;stroke-width:4;stroke-linecap:round;stroke-linejoin:round;stroke-miterlimit:10;}
	.st2{fill:none;stroke:#FFFFFF;stroke-width:4;stroke-linecap:round;stroke-linejoin:round;stroke-miterlimit:10;}
	.st3{fill:#FFFFFF;stroke:#000099;stroke-width:4;stroke-linecap:round;stroke-linejoin:round;stroke-miterlimit:10;}
	.st4{fill:#FD6400;stroke:#FD6400;stroke-width:4;stroke-linecap:round;stroke-linejoin:round;stroke-miterlimit:10;}
	.st5{fill:#000099;stroke:#293377;stroke-width:4;stroke-linecap:round;stroke-linejoin:round;stroke-miterlimit:10;}
	.st6{fill:#293377;stroke:#000099;stroke-width:4;stroke-linecap:round;stroke-linejoin:round;stroke-miterlimit:10;}
</style>
<g>
	<path class="st0" d="M473.43,453.67c-1.41-15.89-14.2-28.65-30.1-30.06c-19.47-1.72-35.96,13.43-36.25,32.62l0,0.03
		c-0.02,1.52-1.31,2.69-2.83,2.59c-0.8-0.05-1.6-0.09-2.4-0.1c-25.66-0.38-46.64,20.71-45.83,46.65c0.18,5.65,1.43,11.05,3.53,16.02
		c28.28-9.45,58.71-18.34,90.61-25.82C469.3,495.6,474.79,469.01,473.43,453.67z"/>
	<path class="st1" d="M893.22,489.2c0,0,10.73-17.82,46.11-33.02"/>
	<path class="st1" d="M893.22,489.2c0,0,10.16-48.18,58.92-71.03"/>
	<path class="st2" d="M397.64,479.91c0,0,30.38,1.14,48.02,14.29c-3.22-11.66-7.64-28.11-7.64-28.11"/>
	<path class="st2" d="M425.65,489.84"/>
	<path class="st1" d="M1141.21,588.02c0,0-95.98-59.24-247.99-98.81"/>
	<path class="st1" d="M449.23,495.82c-91.63,21.58-170.98,54.74-222.35,79.31"/>
	<line class="st1" x1="546.29" y1="130.87" x2="432.66" y2="266.04"/>
	<polygon class="st3" points="663.2,314.88 893.22,235.32 893.22,489.21 663.2,568.77 	"/>
	<path class="st3" d="M662.73,331.16v237.61l-213.45-72.96v-249.6l97.01-115.34l113.97,197.49
		C660.9,329.48,661.75,330.42,662.73,331.16z"/>
	<polygon class="st4" points="504,351.47 504,514.95 580.6,540.87 580.6,377.39 	"/>
	<path class="st0" d="M793.08,45.41l115.19,195.93c2.42,4.11,0.46,9.41-4.06,10.96l-232.78,80.23c-4.24,1.46-8.93-0.29-11.17-4.18
		L546.29,130.87L793.08,45.41z"/>
	<polygon class="st1" points="766.79,364.48 766.79,469.24 714.28,487.01 714.28,382.25 	"/>
	<polygon class="st1" points="845.24,337.63 845.24,442.39 792.73,460.15 792.73,355.39 821.35,345.71 	"/>
	<line class="st5" x1="568.27" y1="451.97" x2="556.14" y2="447.87"/>
	<polygon class="st4" points="792.73,369.17 821.82,359.29 845.24,351.21 845.24,337.63 792.73,355.42 	"/>
	<polygon class="st4" points="714.28,396.24 742.7,386.56 766.79,378.24 766.79,364.48 714.28,382.18 	"/>
	<g>
		<line class="st6" x1="531.4" y1="271.17" x2="511.95" y2="244.86"/>
		<g>
			<path class="st1" d="M545.68,302.73c-15.09,3.05-30.24-8.92-33.84-26.73c-3.6-17.81,5.73-34.72,20.82-37.77
				c15.09-3.05,30.24,8.92,33.84,26.73c1.74,8.63,0.45,17.05-3.06,23.78"/>
			<line class="st6" x1="541.13" y1="263.07" x2="521.68" y2="236.75"/>
		</g>
	</g>
</g>
</svg>
